<?xml version="1.0" encoding="UTF-8" standalone="no"?>
<!DOCTYPE svg PUBLIC "-//W3C//DTD SVG 1.1//EN" "http://www.w3.org/Graphics/SVG/1.1/DTD/svg11.dtd">
<svg version="1.1" xmlns="http://www.w3.org/2000/svg" xmlns:xlink="http://www.w3.org/1999/xlink"
     preserveAspectRatio="xMidYMid meet" viewBox="0 0 1200 800" width="100%" height="100%">
    <defs>
        <path d="M574.03 0.95L574.74 0.99L575.45 1.04L576.15 1.1L576.85 1.17L577.55 1.26L578.25 1.36L578.95 1.48L579.64 1.61L580.33 1.75L581.02 1.91L581.71 2.08L582.39 2.27L583.07 2.47L583.75 2.68L584.43 2.91L585.1 3.15L585.77 3.4L586.43 3.67L587.09 3.95L587.74 4.24L588.4 4.55L589.04 4.87L589.69 5.2L590.32 5.55L688.33 60.2L800.59 60.2L802.08 60.23L803.56 60.32L805.02 60.47L806.47 60.68L807.89 60.94L809.3 61.26L810.68 61.63L812.05 62.06L813.39 62.53L814.7 63.06L815.99 63.64L817.25 64.26L818.49 64.93L819.69 65.65L820.87 66.41L822.01 67.22L823.12 68.06L824.19 68.95L825.23 69.88L826.24 70.85L827.21 71.85L828.13 72.89L829.02 73.97L829.87 75.08L830.67 76.22L831.44 77.39L832.15 78.6L832.82 79.83L833.45 81.1L834.02 82.38L834.55 83.7L835.03 85.04L835.45 86.4L835.82 87.79L836.14 89.19L836.4 90.62L836.61 92.06L836.76 93.53L836.85 95L836.88 96.5L836.88 143.04L940.68 200.91L941.31 201.27L941.93 201.64L942.54 202.02L943.15 202.41L943.74 202.82L944.33 203.23L944.9 203.65L945.47 204.09L946.02 204.53L946.57 204.99L947.11 205.45L947.63 205.93L948.15 206.41L948.66 206.91L949.15 207.41L949.64 207.92L950.11 208.44L950.58 208.97L951.03 209.51L951.48 210.06L951.91 210.62L952.33 211.19L952.74 211.76L953.14 212.34L953.53 212.93L953.9 213.53L954.27 214.14L954.62 214.75L954.96 215.37L955.29 216L955.61 216.64L955.91 217.28L956.21 217.93L956.49 218.59L956.76 219.26L957.01 219.93L957.26 220.6L957.49 221.29L957.71 221.98L957.91 222.67L958.1 223.37L958.28 224.08L958.45 224.78L958.59 225.48L958.73 226.19L958.85 226.89L958.96 227.6L959.05 228.31L959.13 229.02L959.19 229.73L959.25 230.43L959.28 231.14L959.31 231.85L959.31 232.56L959.31 233.27L959.29 233.97L959.26 234.68L959.21 235.38L959.15 236.08L959.08 236.79L958.99 237.49L958.89 238.18L958.77 238.88L958.64 239.57L958.5 240.27L958.34 240.96L958.17 241.64L957.98 242.33L957.79 243.01L957.57 243.68L957.35 244.36L957.11 245.03L956.86 245.7L956.59 246.36L956.31 247.02L956.02 247.68L955.71 248.33L955.39 248.97L955.06 249.62L954.71 250.25L911.4 327.92L984.43 378.64L985.64 379.52L986.8 380.44L987.92 381.39L988.99 382.39L990.01 383.42L990.98 384.48L991.91 385.58L992.78 386.71L993.61 387.86L994.39 389.04L995.12 390.25L995.8 391.49L996.43 392.74L997.01 394.02L997.54 395.31L998.02 396.63L998.45 397.96L998.82 399.3L999.15 400.66L999.42 402.02L999.64 403.4L999.81 404.78L999.93 406.17L999.99 407.57L1000 408.96L999.95 410.36L999.85 411.76L999.7 413.16L999.49 414.55L999.23 415.94L998.91 417.32L998.54 418.69L998.11 420.05L997.63 421.4L997.09 422.73L996.49 424.05L995.83 425.36L995.12 426.64L994.35 427.91L993.52 429.15L836.88 654.67L836.88 703.54L836.85 705.03L836.76 706.51L836.61 707.97L836.4 709.42L836.14 710.84L835.82 712.25L835.45 713.64L835.02 715L834.55 716.34L834.02 717.65L833.45 718.94L832.82 720.2L832.15 721.44L831.43 722.64L830.67 723.82L829.87 724.96L829.02 726.07L828.13 727.14L827.2 728.19L826.24 729.19L825.23 730.16L824.19 731.08L823.12 731.97L822.01 732.82L820.86 733.62L819.69 734.39L818.48 735.1L817.25 735.77L815.99 736.4L814.7 736.97L813.38 737.5L812.05 737.98L810.68 738.4L809.3 738.77L807.89 739.09L806.47 739.35L805.02 739.56L803.56 739.71L802.08 739.8L800.59 739.83L777.73 739.83L764.68 758.62L764.14 759.37L763.59 760.11L763.02 760.82L762.44 761.52L761.84 762.2L761.23 762.86L760.6 763.5L759.96 764.13L759.31 764.74L758.65 765.32L757.97 765.9L757.28 766.45L756.58 766.98L755.87 767.5L755.15 767.99L754.42 768.47L753.68 768.93L752.93 769.37L752.17 769.8L751.4 770.2L750.62 770.58L749.84 770.95L749.04 771.29L748.24 771.62L747.44 771.93L746.62 772.22L745.81 772.48L744.98 772.73L744.15 772.96L743.32 773.17L742.48 773.36L741.63 773.53L740.79 773.69L739.94 773.82L739.08 773.93L738.23 774.02L737.37 774.09L736.51 774.14L735.65 774.17L734.79 774.18L734.25 774.18L733.72 774.16L733.18 774.14L732.65 774.12L732.11 774.08L731.57 774.04L731.04 773.99L730.5 773.93L729.97 773.86L729.44 773.78L728.9 773.7L728.37 773.61L727.84 773.51L727.31 773.4L726.78 773.29L726.25 773.16L725.72 773.03L725.2 772.89L724.67 772.74L724.15 772.59L723.63 772.42L723.11 772.25L722.59 772.07L722.08 771.88L721.56 771.68L721.05 771.48L720.54 771.26L720.03 771.04L719.53 770.81L719.03 770.57L718.52 770.32L718.03 770.07L717.53 769.8L717.04 769.53L716.55 769.25L716.06 768.96L715.58 768.66L715.1 768.36L714.62 768.04L714.15 767.72L679.59 743.72L659.09 780.47L658.58 781.35L658.05 782.22L657.5 783.06L656.93 783.88L656.34 784.69L655.73 785.47L655.1 786.23L654.46 786.97L653.8 787.69L653.12 788.39L652.42 789.07L651.71 789.73L650.98 790.37L650.24 790.99L649.48 791.58L648.71 792.16L647.92 792.71L647.13 793.24L646.32 793.75L645.5 794.23L644.66 794.69L643.82 795.14L642.96 795.55L642.1 795.95L641.22 796.32L640.34 796.67L639.45 797L638.55 797.3L637.65 797.58L636.73 797.84L635.81 798.07L634.89 798.28L633.96 798.46L633.02 798.62L632.08 798.76L631.14 798.87L630.19 798.96L629.24 799.02L628.29 799.06L627.33 799.07L626.88 799.07L626.44 799.06L625.99 799.05L625.54 799.03L625.09 799L624.64 798.97L624.19 798.93L623.74 798.89L623.29 798.84L622.84 798.79L622.39 798.73L621.94 798.67L621.5 798.6L621.05 798.52L620.6 798.44L620.15 798.35L619.71 798.26L619.26 798.16L618.82 798.05L618.37 797.94L617.93 797.82L617.49 797.7L617.04 797.57L616.6 797.44L616.16 797.3L615.72 797.15L615.28 797L614.85 796.84L614.41 796.68L613.98 796.51L613.54 796.33L613.11 796.15L612.68 795.96L612.25 795.77L611.82 795.57L611.4 795.36L610.97 795.15L610.55 794.93L610.13 794.7L609.71 794.47L511.69 739.83L399.44 739.83L397.94 739.8L396.47 739.71L395 739.56L393.56 739.35L392.13 739.09L390.73 738.77L389.34 738.4L387.98 737.98L386.64 737.5L385.33 736.97L384.04 736.4L382.77 735.77L381.54 735.1L380.34 734.39L379.16 733.62L378.02 732.82L376.91 731.97L375.83 731.08L374.79 730.16L373.79 729.19L372.82 728.19L371.89 727.14L371.01 726.07L370.16 724.96L369.35 723.82L368.59 722.64L367.88 721.44L367.2 720.2L366.58 718.94L366 717.65L365.48 716.34L365 715L364.58 713.64L364.2 712.25L363.89 710.84L363.62 709.42L363.42 707.97L363.27 706.51L363.18 705.03L363.15 703.54L363.15 657.02L259.36 599.14L258.72 598.78L258.1 598.41L257.49 598.03L256.88 597.63L256.29 597.23L255.7 596.81L255.12 596.39L254.56 595.95L254 595.51L253.45 595.05L252.91 594.59L252.39 594.11L251.87 593.62L251.36 593.13L250.86 592.62L250.38 592.11L249.9 591.59L249.43 591.05L248.98 590.51L248.54 589.96L248.1 589.41L247.68 588.84L247.27 588.26L246.87 587.68L246.48 587.09L246.1 586.49L245.74 585.88L245.39 585.27L245.04 584.64L244.71 584.01L244.4 583.37L244.09 582.73L243.8 582.08L243.52 581.42L243.25 580.75L242.99 580.08L242.75 579.4L242.52 578.72L242.3 578.03L242.09 577.33L241.9 576.63L241.73 575.93L241.56 575.23L241.42 574.52L241.28 573.82L241.16 573.11L241.06 572.4L240.96 571.7L240.89 570.99L240.82 570.28L240.77 569.57L240.74 568.86L240.71 568.16L240.71 567.45L240.71 566.74L240.73 566.04L240.77 565.33L240.81 564.63L240.87 563.92L240.95 563.22L241.04 562.52L241.14 561.82L241.26 561.13L241.39 560.44L241.53 559.74L241.69 559.05L241.86 558.37L242.05 557.68L242.25 557L242.46 556.33L242.69 555.65L242.93 554.98L243.18 554.31L243.45 553.65L243.73 552.99L244.02 552.34L244.33 551.69L244.65 551.04L244.98 550.4L245.33 549.76L288.63 472.11L215.6 421.39L215.01 420.97L214.43 420.54L213.85 420.1L213.29 419.65L212.74 419.19L212.2 418.72L211.67 418.24L211.15 417.75L210.64 417.25L210.14 416.75L209.65 416.23L209.17 415.71L208.7 415.17L208.25 414.63L207.8 414.08L207.37 413.52L206.95 412.96L206.54 412.38L206.14 411.8L205.75 411.21L205.37 410.61L205.01 410.01L204.66 409.4L204.32 408.78L203.99 408.15L203.67 407.52L203.37 406.88L203.08 406.23L202.8 405.58L202.53 404.92L202.28 404.26L202.04 403.58L201.81 402.91L201.6 402.23L201.39 401.54L201.21 400.84L201.03 400.15L200.87 399.44L200.72 398.73L200.58 398.02L200.46 397.3L200.35 396.59L200.26 395.87L200.18 395.16L200.12 394.44L200.07 393.73L200.03 393.01L200.01 392.3L200 391.58L200 390.87L200.02 390.16L200.06 389.45L200.11 388.75L200.17 388.04L200.24 387.34L200.33 386.63L200.43 385.94L200.55 385.24L200.68 384.54L200.82 383.85L200.98 383.17L201.15 382.48L201.34 381.8L201.53 381.12L201.75 380.45L201.97 379.77L202.21 379.11L202.46 378.44L202.73 377.79L203 377.13L203.3 376.48L203.6 375.84L203.92 375.2L204.25 374.56L204.59 373.93L204.95 373.31L205.32 372.69L205.7 372.08L206.1 371.47L206.51 370.87L363.15 145.38L363.15 96.5L363.18 95L363.27 93.53L363.42 92.06L363.63 90.62L363.89 89.19L364.21 87.79L364.58 86.4L365.01 85.04L365.48 83.7L366.01 82.38L366.58 81.1L367.21 79.83L367.88 78.6L368.6 77.39L369.36 76.22L370.16 75.08L371.01 73.97L371.9 72.89L372.83 71.85L373.79 70.85L374.8 69.88L375.84 68.95L376.91 68.06L378.02 67.22L379.17 66.41L380.34 65.65L381.55 64.93L382.78 64.26L384.04 63.64L385.33 63.06L386.65 62.53L387.98 62.06L389.35 61.63L390.73 61.26L392.14 60.94L393.56 60.68L395.01 60.47L396.47 60.32L397.95 60.23L399.44 60.2L422.32 60.2L435.35 41.43L435.77 40.84L436.2 40.25L436.64 39.68L437.09 39.12L437.55 38.57L438.02 38.02L438.5 37.49L438.99 36.97L439.49 36.46L440 35.96L440.51 35.47L441.04 34.99L441.57 34.53L442.11 34.07L442.66 33.63L443.22 33.19L443.79 32.77L444.37 32.36L444.95 31.96L445.54 31.57L446.14 31.2L446.74 30.83L447.36 30.48L447.98 30.14L448.6 29.81L449.24 29.5L449.88 29.19L450.53 28.9L451.18 28.62L451.84 28.36L452.5 28.1L453.18 27.86L453.85 27.63L454.54 27.42L455.23 27.22L455.92 27.03L456.62 26.85L457.32 26.69L458.03 26.54L458.75 26.41L459.46 26.29L460.18 26.18L460.9 26.09L461.61 26.01L462.33 25.94L463.04 25.89L463.76 25.86L464.47 25.84L465.18 25.83L465.9 25.83L466.61 25.85L467.31 25.89L468.02 25.94L468.73 26L469.43 26.07L470.13 26.16L470.83 26.26L471.53 26.38L472.22 26.51L472.91 26.66L473.6 26.81L474.28 26.98L474.96 27.17L475.64 27.37L476.32 27.58L476.99 27.8L477.65 28.04L478.31 28.29L478.97 28.56L479.63 28.84L480.27 29.13L480.92 29.43L481.56 29.75L482.19 30.08L482.82 30.43L483.44 30.79L484.06 31.16L484.67 31.54L485.28 31.94L485.88 32.35L520.44 56.37L540.94 19.58L541.3 18.95L541.67 18.33L542.05 17.72L542.45 17.11L542.85 16.52L543.26 15.93L543.69 15.35L544.13 14.79L544.57 14.23L545.03 13.68L545.49 13.14L545.97 12.62L546.45 12.1L546.95 11.59L547.45 11.1L547.97 10.61L548.49 10.13L549.02 9.67L549.56 9.21L550.11 8.77L550.67 8.34L551.24 7.91L551.81 7.5L552.39 7.1L552.98 6.72L553.58 6.34L554.19 5.97L554.8 5.62L555.43 5.28L556.06 4.95L556.69 4.63L557.34 4.33L557.99 4.03L558.64 3.75L559.31 3.48L559.98 3.23L560.66 2.98L561.34 2.75L562.03 2.53L562.73 2.33L563.43 2.14L564.13 1.96L564.83 1.79L565.54 1.64L566.25 1.51L566.95 1.39L567.66 1.28L568.37 1.19L569.08 1.11L569.79 1.05L570.5 1L571.2 0.96L571.91 0.94L572.62 0.93L573.33 0.93L574.03 0.95ZM619.42 777.08L619.82 777.29L620.22 777.48L620.64 777.66L621.06 777.81L621.49 777.95L621.93 778.06L622.38 778.16L622.83 778.24L623.3 778.3L623.77 778.34L624.25 778.36L624.74 778.36L625.23 778.35L625.74 778.31L626.25 778.26L626.77 778.19L627.3 778.09L627.84 777.98L628.38 777.85L628.93 777.71L629.49 777.54L630.06 777.35L630.64 777.15L631.23 776.92L631.82 776.68L632.42 776.42L633.03 776.14L633.65 775.84L634.28 775.52L634.91 775.18L635.55 774.82L636.2 774.45L636.86 774.05L637.53 773.64L638.2 773.21L638.89 772.76L639.58 772.29L640.28 771.8L640.99 771.29L641.7 770.76L658.95 739.83L552.6 739.83L619.42 777.08ZM725.51 751.36L726.31 751.86L727.16 752.28L728.05 752.63L728.99 752.89L729.97 753.07L730.99 753.17L732.06 753.2L733.17 753.14L734.33 753L735.53 752.79L736.77 752.49L738.06 752.11L739.4 751.66L740.78 751.12L742.2 750.51L743.67 749.81L745.18 749.04L746.73 748.18L748.33 747.24L753.48 739.83L708.91 739.83L725.51 751.36ZM398.77 80.13L398.1 80.18L397.44 80.24L396.79 80.34L396.14 80.45L395.51 80.6L394.89 80.77L394.27 80.96L393.67 81.17L393.07 81.41L392.49 81.67L391.92 81.95L391.37 82.25L390.82 82.58L390.29 82.92L389.78 83.29L389.28 83.67L388.79 84.07L388.32 84.49L387.87 84.92L387.43 85.38L387.01 85.85L386.61 86.33L386.23 86.83L385.87 87.35L385.52 87.88L385.2 88.42L384.9 88.98L384.62 89.55L384.36 90.13L384.12 90.72L383.9 91.33L383.71 91.94L383.54 92.57L383.4 93.2L383.28 93.84L383.19 94.5L383.12 95.16L383.08 95.82L383.07 96.5L383.07 703.54L383.08 704.21L383.12 704.88L383.19 705.54L383.28 706.19L383.4 706.84L383.54 707.47L383.71 708.1L383.9 708.71L384.12 709.31L384.36 709.91L384.62 710.49L384.9 711.06L385.2 711.62L385.52 712.16L385.87 712.69L386.23 713.2L386.61 713.7L387.01 714.19L387.43 714.66L387.87 715.11L388.32 715.55L388.79 715.97L389.28 716.37L389.78 716.75L390.29 717.11L390.82 717.46L391.37 717.78L391.92 718.08L392.49 718.37L393.07 718.63L393.67 718.86L394.27 719.08L394.89 719.27L395.51 719.44L396.14 719.58L396.79 719.7L397.44 719.79L398.1 719.86L398.77 719.9L399.44 719.91L800.59 719.91L801.04 719.9L801.49 719.87L801.93 719.82L802.38 719.75L802.82 719.66L803.26 719.55L803.7 719.41L804.13 719.26L804.57 719.08L805 718.89L805.43 718.68L805.86 718.44L806.28 718.18L806.7 717.91L807.12 717.61L807.54 717.29L807.96 716.96L808.37 716.6L808.79 716.22L809.2 715.82L809.61 715.4L810.01 714.96L810.42 714.5L810.82 714.02L811.22 713.52L811.62 713L812.01 712.45L812.4 711.89L812.8 711.31L813.19 710.7L813.57 710.08L813.96 709.43L814.34 708.77L814.72 708.08L815.1 707.38L815.48 706.65L815.85 705.9L816.22 705.14L816.59 704.35L816.96 703.54L816.96 96.5L816.95 95.82L816.91 95.16L816.84 94.5L816.75 93.84L816.63 93.2L816.49 92.57L816.32 91.94L816.13 91.33L815.91 90.72L815.67 90.13L815.41 89.55L815.13 88.98L814.83 88.42L814.51 87.88L814.16 87.35L813.8 86.83L813.42 86.33L813.02 85.85L812.6 85.38L812.16 84.92L811.71 84.49L811.24 84.07L810.75 83.67L810.25 83.29L809.74 82.92L809.21 82.58L808.66 82.25L808.11 81.95L807.54 81.67L806.96 81.41L806.36 81.17L805.76 80.96L805.14 80.77L804.52 80.6L803.88 80.45L803.24 80.34L802.59 80.24L801.93 80.18L801.26 80.13L800.59 80.12L399.44 80.12L398.77 80.13ZM262.56 559.76L262.41 560.05L262.27 560.34L262.13 560.63L261.99 560.93L261.87 561.23L261.75 561.53L261.63 561.83L261.52 562.13L261.42 562.43L261.33 562.74L261.24 563.05L261.15 563.35L261.07 563.66L261 563.97L260.94 564.29L260.88 564.6L260.83 564.91L260.78 565.23L260.74 565.54L260.71 565.86L260.68 566.17L260.66 566.49L260.64 566.81L260.63 567.13L260.63 567.45L260.63 567.76L260.64 568.08L260.66 568.4L260.68 568.72L260.71 569.04L260.75 569.36L260.79 569.68L260.84 570L260.89 570.32L260.95 570.63L261.02 570.95L261.09 571.27L261.17 571.58L261.26 571.9L261.32 572.11L261.39 572.32L261.47 572.54L261.55 572.76L261.64 572.97L261.74 573.19L261.84 573.42L261.95 573.64L262.07 573.87L262.19 574.09L262.32 574.32L262.46 574.55L262.61 574.79L262.76 575.02L262.91 575.26L263.08 575.5L263.25 575.74L263.43 575.98L263.61 576.22L263.8 576.47L264 576.71L264.21 576.96L264.42 577.21L264.64 577.47L264.86 577.72L265.1 577.98L265.33 578.23L265.58 578.49L265.83 578.75L266.09 579.02L266.36 579.28L266.63 579.55L266.91 579.82L267.2 580.09L267.49 580.36L267.79 580.63L268.09 580.91L268.41 581.19L268.73 581.47L269.05 581.75L363.15 634.21L363.15 523.88L305.06 483.53L262.72 559.47L262.56 559.76ZM977.17 417.78L977.54 417.22L977.89 416.65L978.21 416.07L978.51 415.48L978.78 414.89L979.02 414.29L979.24 413.68L979.43 413.06L979.6 412.44L979.74 411.82L979.86 411.2L979.96 410.57L980.02 409.94L980.07 409.31L980.09 408.68L980.08 408.05L980.06 407.42L980 406.79L979.93 406.17L979.83 405.54L979.7 404.93L979.56 404.32L979.39 403.71L979.19 403.11L978.98 402.52L978.74 401.93L978.48 401.36L978.19 400.79L977.89 400.23L977.56 399.69L977.2 399.15L976.83 398.63L976.44 398.12L976.02 397.63L975.58 397.15L975.12 396.68L974.64 396.24L974.13 395.8L973.61 395.39L973.06 394.99L836.88 300.41L836.88 619.75L977.17 417.78ZM222.68 382.51L222.5 382.79L222.33 383.06L222.16 383.34L222 383.62L221.84 383.91L221.69 384.19L221.55 384.48L221.41 384.77L221.28 385.07L221.15 385.36L221.04 385.66L220.92 385.96L220.81 386.26L220.71 386.56L220.62 386.87L220.53 387.17L220.44 387.48L220.37 387.79L220.3 388.1L220.23 388.41L220.17 388.73L220.12 389.04L220.07 389.35L220.03 389.67L220 389.99L219.97 390.31L219.95 390.63L219.93 390.95L219.93 391.27L219.92 391.59L219.93 391.91L219.94 392.23L219.95 392.55L219.98 392.87L220.01 393.2L220.04 393.52L220.08 393.84L220.13 394.17L220.19 394.49L220.25 394.81L220.31 395.13L220.39 395.45L220.47 395.76L220.55 396.07L220.64 396.38L220.74 396.69L220.84 397L220.95 397.3L221.07 397.6L221.19 397.9L221.31 398.19L221.44 398.48L221.58 398.77L221.72 399.06L221.87 399.34L222.02 399.62L222.18 399.89L222.35 400.17L222.52 400.43L222.69 400.7L222.87 400.96L223.06 401.22L223.25 401.48L223.44 401.73L223.64 401.98L223.85 402.22L224.06 402.46L224.27 402.7L224.49 402.93L224.72 403.16L224.95 403.38L225.18 403.6L225.42 403.82L225.67 404.03L225.92 404.24L226.17 404.44L226.43 404.64L226.69 404.83L226.96 405.02L363.15 499.63L363.15 180.29L222.86 382.24L222.68 382.51ZM894.97 316.5L937.31 240.56L937.47 240.27L937.62 239.98L937.76 239.69L937.9 239.4L938.03 239.1L938.16 238.8L938.28 238.5L938.39 238.2L938.5 237.9L938.6 237.6L938.7 237.29L938.79 236.98L938.87 236.67L938.95 236.37L939.02 236.05L939.08 235.74L939.14 235.43L939.19 235.12L939.24 234.8L939.28 234.48L939.31 234.17L939.34 233.85L939.36 233.53L939.37 233.22L939.38 232.9L939.38 232.58L939.38 232.26L939.37 231.94L939.35 231.62L939.33 231.3L939.3 230.98L939.27 230.66L939.23 230.34L939.18 230.02L939.12 229.71L939.06 229.39L938.99 229.07L938.92 228.75L938.84 228.44L938.76 228.12L938.69 227.91L938.62 227.7L938.55 227.48L938.46 227.27L938.37 227.05L938.28 226.83L938.17 226.61L938.06 226.38L937.95 226.16L937.82 225.93L937.69 225.7L937.55 225.47L937.41 225.24L937.26 225.01L937.1 224.77L936.94 224.53L936.77 224.3L936.59 224.05L936.41 223.81L936.22 223.57L936.02 223.32L935.81 223.07L935.6 222.82L935.38 222.57L935.16 222.32L934.93 222.06L934.69 221.81L934.45 221.55L934.19 221.29L933.94 221.03L933.67 220.76L933.4 220.5L933.12 220.23L932.84 219.96L932.54 219.69L932.25 219.42L931.94 219.14L931.63 218.87L931.31 218.59L930.99 218.31L836.88 165.85L836.88 276.16L894.97 316.5ZM571.99 20.87L571.67 20.89L571.35 20.91L571.04 20.94L570.72 20.97L570.4 21.02L570.08 21.06L569.76 21.12L569.44 21.18L569.12 21.25L568.81 21.32L568.49 21.4L568.18 21.49L567.96 21.55L567.75 21.62L567.54 21.7L567.32 21.78L567.1 21.87L566.88 21.97L566.66 22.07L566.44 22.18L566.21 22.3L565.98 22.42L565.75 22.55L565.52 22.69L565.29 22.83L565.06 22.99L564.82 23.14L564.58 23.31L564.34 23.48L564.1 23.66L563.86 23.84L563.61 24.03L563.36 24.23L563.12 24.44L562.87 24.65L562.61 24.87L562.36 25.09L562.1 25.32L561.85 25.56L561.59 25.81L561.33 26.06L561.06 26.32L560.8 26.58L560.53 26.86L560.26 27.14L559.99 27.42L559.72 27.72L559.45 28.01L559.17 28.32L558.9 28.63L558.62 28.95L558.34 29.28L541.09 60.2L647.44 60.2L580.62 22.94L580.33 22.78L580.04 22.63L579.75 22.49L579.45 22.35L579.16 22.22L578.86 22.09L578.56 21.97L578.26 21.86L577.96 21.75L577.65 21.65L577.34 21.55L577.04 21.46L576.73 21.38L576.42 21.3L576.11 21.23L575.8 21.16L575.48 21.1L575.17 21.05L574.85 21.01L574.54 20.97L574.22 20.93L573.9 20.9L573.59 20.88L573.27 20.87L572.95 20.86L572.63 20.86L572.31 20.86L571.99 20.87ZM463.63 45.82L462.95 45.9L462.27 46.01L461.81 46.1L461.34 46.23L460.86 46.38L460.37 46.57L459.86 46.78L459.35 47.02L458.83 47.29L458.29 47.59L457.75 47.91L457.19 48.27L456.63 48.66L456.05 49.07L455.46 49.52L454.87 49.99L454.26 50.49L453.64 51.02L453.01 51.58L452.37 52.17L451.71 52.78L446.56 60.2L491.08 60.2L474.5 48.69L473.93 48.31L473.34 47.95L472.75 47.62L472.14 47.32L471.52 47.04L470.9 46.79L470.27 46.56L469.62 46.36L468.98 46.19L468.32 46.05L467.66 45.94L467 45.85L466.33 45.79L465.66 45.75L464.98 45.75L464.3 45.77L463.63 45.82Z"
              id="b7KeshmGx"></path>
        <path d="M644.18 299.89L645.52 299.96L646.86 300.05L648.19 300.17L649.52 300.31L650.84 300.48L652.15 300.67L653.46 300.89L654.76 301.14L656.06 301.41L657.34 301.7L658.62 302.02L659.89 302.36L661.16 302.73L662.41 303.13L663.66 303.55L664.89 303.99L666.12 304.45L667.34 304.94L668.55 305.46L669.75 306L670.93 306.56L672.11 307.14L673.28 307.75L674.43 308.39L675.57 309.04L676.7 309.72L677.82 310.42L678.93 311.14L680.02 311.89L681.1 312.66L682.17 313.45L683.22 314.27L684.26 315.1L685.28 315.96L686.29 316.84L687.29 317.75L688.27 318.67L689.23 319.62L691.16 321.62L692.98 323.68L694.71 325.8L696.34 327.97L697.87 330.2L699.3 332.46L700.63 334.78L701.87 337.13L703 339.52L704.04 341.94L704.98 344.39L705.82 346.87L706.56 349.38L707.2 351.91L707.74 354.46L708.19 357.02L708.53 359.59L708.78 362.18L708.93 364.77L708.98 367.36L708.93 369.95L708.78 372.54L708.53 375.13L708.19 377.7L707.74 380.26L707.2 382.81L706.56 385.34L705.82 387.84L704.98 390.32L704.04 392.78L703 395.2L701.87 397.59L700.63 399.94L699.3 402.25L697.87 404.52L696.34 406.74L694.71 408.91L692.98 411.03L691.16 413.1L689.23 415.1L607.05 497.28L606.91 497.42L606.77 497.55L606.62 497.69L606.47 497.81L606.32 497.94L606.17 498.06L606.01 498.18L605.86 498.3L605.7 498.41L605.54 498.52L605.37 498.63L605.21 498.73L605.04 498.83L604.87 498.93L604.7 499.02L604.53 499.11L604.35 499.2L604.18 499.28L604 499.36L603.82 499.44L603.64 499.51L603.46 499.58L603.28 499.65L603.09 499.71L602.91 499.77L602.72 499.82L602.53 499.87L602.34 499.92L602.15 499.96L601.96 500L601.77 500.04L601.58 500.07L601.39 500.1L601.19 500.13L601 500.15L600.8 500.17L600.6 500.18L600.41 500.19L600.21 500.2L600.01 500.2L599.81 500.2L599.62 500.19L599.42 500.18L599.22 500.17L599.03 500.15L598.83 500.13L598.64 500.1L598.45 500.07L598.25 500.04L598.06 500L597.87 499.96L597.68 499.92L597.49 499.87L597.3 499.82L597.12 499.77L596.93 499.71L596.75 499.65L596.56 499.58L596.38 499.51L596.2 499.44L596.02 499.36L595.85 499.28L595.67 499.2L595.5 499.11L595.32 499.02L595.15 498.93L594.98 498.83L594.82 498.73L594.65 498.63L594.49 498.52L594.33 498.41L594.17 498.3L594.01 498.18L593.86 498.06L593.7 497.94L593.55 497.81L593.4 497.69L593.26 497.55L593.11 497.42L592.97 497.28L510.8 415.1L508.87 413.1L507.05 411.03L505.32 408.91L503.69 406.74L502.16 404.52L500.73 402.25L499.39 399.94L498.16 397.59L497.02 395.2L495.99 392.78L495.05 390.32L494.21 387.84L493.47 385.34L492.83 382.81L492.29 380.26L491.84 377.7L491.5 375.13L491.25 372.54L491.1 369.95L491.05 367.36L491.1 364.77L491.25 362.18L491.5 359.59L491.84 357.02L492.29 354.46L492.83 351.91L493.47 349.38L494.21 346.87L495.05 344.39L495.99 341.94L497.02 339.52L498.16 337.13L499.39 334.78L500.73 332.46L502.16 330.2L503.69 327.97L505.32 325.8L507.05 323.68L508.87 321.62L510.8 319.62L511.76 318.67L512.74 317.75L513.74 316.84L514.75 315.96L515.77 315.1L516.81 314.27L517.86 313.45L518.93 312.66L520.01 311.89L521.1 311.14L522.21 310.42L523.32 309.72L524.46 309.04L525.6 308.39L526.75 307.75L527.92 307.14L529.09 306.56L530.28 306L531.48 305.46L532.69 304.94L533.91 304.45L535.13 303.99L536.37 303.55L537.62 303.13L538.87 302.73L540.13 302.36L541.41 302.02L542.69 301.7L543.97 301.41L545.27 301.14L546.57 300.89L547.88 300.67L549.19 300.48L550.51 300.31L551.84 300.17L553.17 300.05L554.5 299.96L555.85 299.89L557.19 299.85L558.54 299.84L559.68 299.85L560.82 299.88L561.95 299.92L563.08 299.99L564.21 300.07L565.33 300.17L566.45 300.3L567.57 300.43L568.68 300.59L569.78 300.77L570.88 300.96L571.98 301.17L573.07 301.4L574.16 301.64L575.24 301.91L576.31 302.19L577.38 302.49L578.45 302.81L579.51 303.14L580.56 303.49L581.6 303.86L582.64 304.25L583.67 304.65L584.7 305.07L585.72 305.51L586.73 305.96L587.73 306.43L588.73 306.92L589.71 307.43L590.69 307.95L591.67 308.49L592.63 309.04L593.58 309.61L594.53 310.2L595.47 310.8L596.4 311.42L597.31 312.06L598.22 312.71L599.12 313.38L600.01 314.06L600.91 313.38L601.81 312.71L602.71 312.06L603.63 311.42L604.56 310.8L605.5 310.2L606.44 309.61L607.4 309.04L608.36 308.49L609.33 307.95L610.31 307.43L611.3 306.92L612.3 306.43L613.3 305.96L614.31 305.51L615.33 305.07L616.35 304.65L617.39 304.25L618.42 303.86L619.47 303.49L620.52 303.14L621.58 302.81L622.64 302.49L623.71 302.19L624.79 301.91L625.87 301.64L626.96 301.4L628.05 301.17L629.14 300.96L630.25 300.77L631.35 300.59L632.46 300.43L633.58 300.3L634.7 300.17L635.82 300.07L636.94 299.99L638.07 299.92L639.21 299.88L640.34 299.85L641.48 299.84L642.84 299.85L644.18 299.89ZM639.58 319.79L638.64 319.84L637.7 319.9L636.76 319.98L635.82 320.09L634.89 320.2L633.96 320.34L633.04 320.5L632.13 320.67L631.21 320.86L630.31 321.07L629.4 321.29L628.51 321.54L627.62 321.8L626.73 322.07L625.85 322.37L624.98 322.68L624.12 323.01L623.26 323.35L622.41 323.72L621.56 324.1L620.72 324.49L619.89 324.91L619.07 325.33L618.26 325.78L617.45 326.24L616.66 326.72L615.87 327.21L615.09 327.73L614.32 328.25L613.56 328.79L612.8 329.35L612.06 329.93L611.33 330.52L610.61 331.12L609.89 331.74L609.19 332.38L608.5 333.03L607.82 333.7L607.05 334.47L606.91 334.6L606.77 334.74L606.62 334.87L606.47 335L606.32 335.13L606.17 335.25L606.01 335.37L605.86 335.49L605.7 335.6L605.54 335.71L605.37 335.82L605.21 335.92L605.04 336.02L604.87 336.12L604.7 336.21L604.53 336.3L604.35 336.39L604.18 336.47L604 336.55L603.82 336.62L603.64 336.7L603.46 336.77L603.28 336.83L603.09 336.89L602.91 336.95L602.72 337.01L602.53 337.06L602.35 337.11L602.16 337.15L601.96 337.19L601.77 337.23L601.58 337.26L601.39 337.29L601.19 337.31L601 337.33L600.8 337.35L600.6 337.37L600.41 337.38L600.21 337.38L600.01 337.38L599.81 337.38L599.61 337.38L599.41 337.37L599.22 337.35L599.02 337.33L598.82 337.31L598.63 337.29L598.44 337.26L598.24 337.22L598.05 337.19L597.86 337.15L597.67 337.1L597.48 337.06L597.29 337L597.11 336.95L596.92 336.89L596.74 336.83L596.55 336.76L596.37 336.69L596.19 336.62L596.01 336.54L595.83 336.46L595.66 336.38L595.48 336.29L595.31 336.2L595.14 336.11L594.97 336.01L594.8 335.91L594.64 335.81L594.48 335.7L594.31 335.59L594.16 335.48L594 335.36L593.84 335.24L593.69 335.12L593.54 334.99L593.39 334.86L593.24 334.73L593.1 334.59L592.96 334.46L592.19 333.69L591.51 333.02L590.82 332.37L590.12 331.73L589.41 331.11L588.69 330.51L587.96 329.92L587.22 329.35L586.46 328.79L585.7 328.25L584.93 327.72L584.15 327.21L583.37 326.72L582.57 326.24L581.76 325.78L580.95 325.33L580.13 324.9L579.3 324.49L578.46 324.09L577.62 323.71L576.77 323.35L575.91 323.01L575.04 322.68L574.17 322.37L573.29 322.07L572.41 321.79L571.52 321.53L570.62 321.29L569.72 321.07L568.81 320.86L567.9 320.67L566.98 320.5L566.06 320.34L565.13 320.2L564.2 320.09L563.27 319.98L562.33 319.9L561.39 319.84L560.44 319.79L559.49 319.76L558.54 319.75L557.59 319.76L556.64 319.79L555.69 319.84L554.75 319.9L553.81 319.98L552.88 320.09L551.95 320.2L551.02 320.34L550.1 320.5L549.18 320.67L548.27 320.86L547.36 321.07L546.46 321.29L545.56 321.54L544.67 321.8L543.79 322.07L542.91 322.37L542.04 322.68L541.17 323.01L540.31 323.35L539.46 323.72L538.62 324.1L537.78 324.49L536.95 324.91L536.13 325.33L535.31 325.78L534.51 326.24L533.71 326.72L532.92 327.21L532.14 327.73L531.37 328.25L530.61 328.79L529.86 329.35L529.12 329.93L528.38 330.52L527.66 331.12L526.95 331.74L526.25 332.38L525.56 333.03L524.88 333.7L523.52 335.11L522.23 336.57L521.02 338.06L519.87 339.59L518.79 341.16L517.78 342.76L516.84 344.39L515.97 346.04L515.17 347.73L514.44 349.44L513.78 351.17L513.19 352.92L512.66 354.68L512.21 356.47L511.83 358.26L511.51 360.07L511.27 361.88L511.1 363.7L510.99 365.53L510.96 367.36L510.99 369.19L511.1 371.01L511.27 372.83L511.51 374.65L511.83 376.46L512.21 378.25L512.66 380.03L513.19 381.8L513.78 383.55L514.44 385.28L515.17 386.99L515.97 388.67L516.84 390.33L517.78 391.96L518.79 393.56L519.87 395.13L521.02 396.66L522.23 398.15L523.52 399.61L524.88 401.02L600.01 476.16L675.15 401.02L676.51 399.61L677.79 398.15L679.01 396.66L680.16 395.13L681.24 393.56L682.25 391.96L683.19 390.33L684.06 388.67L684.86 386.99L685.59 385.28L686.25 383.55L686.84 381.8L687.36 380.03L687.82 378.25L688.2 376.46L688.51 374.65L688.76 372.83L688.93 371.01L689.03 369.19L689.07 367.36L689.03 365.53L688.93 363.7L688.76 361.88L688.51 360.07L688.2 358.26L687.82 356.47L687.36 354.68L686.84 352.92L686.25 351.17L685.59 349.44L684.86 347.73L684.06 346.04L683.19 344.39L682.25 342.76L681.24 341.16L680.16 339.59L679.01 338.06L677.79 336.57L676.5 335.11L675.15 333.7L674.47 333.03L673.78 332.38L673.07 331.74L672.36 331.12L671.64 330.52L670.91 329.93L670.17 329.35L669.41 328.79L668.65 328.25L667.88 327.72L667.1 327.21L666.31 326.72L665.52 326.24L664.71 325.78L663.9 325.33L663.08 324.9L662.25 324.49L661.41 324.1L660.57 323.72L659.71 323.35L658.85 323.01L657.99 322.68L657.12 322.37L656.24 322.07L655.35 321.79L654.46 321.53L653.57 321.29L652.66 321.07L651.76 320.86L650.85 320.67L649.93 320.5L649.01 320.34L648.08 320.2L647.15 320.09L646.21 319.98L645.27 319.9L644.33 319.84L643.39 319.79L642.44 319.76L641.48 319.75L640.53 319.76L639.58 319.79Z"
              id="eX8EraAUu"></path>
        <path d="M485.84 102.62L486.57 102.66L487.31 102.71L488.03 102.77L488.76 102.85L489.48 102.94L490.2 103.05L490.91 103.17L491.62 103.3L492.33 103.45L493.03 103.61L493.73 103.79L494.43 103.98L495.12 104.18L495.8 104.39L496.49 104.62L497.16 104.86L497.83 105.12L498.5 105.39L499.16 105.67L499.81 105.96L500.46 106.27L501.11 106.59L501.74 106.92L502.37 107.27L503 107.63L503.62 108L504.23 108.38L504.83 108.78L505.43 109.18L506.02 109.6L506.6 110.04L507.18 110.48L507.74 110.94L508.3 111.41L508.86 111.89L509.4 112.38L509.94 112.89L510.46 113.41L510.98 113.93L511.49 114.47L511.98 115.01L512.46 115.57L512.93 116.12L513.39 116.69L513.83 117.27L514.27 117.85L514.69 118.44L515.09 119.04L515.49 119.64L515.87 120.25L516.24 120.87L516.6 121.5L516.95 122.13L517.28 122.76L517.6 123.41L517.91 124.06L518.2 124.71L518.48 125.37L518.75 126.04L519.01 126.71L519.25 127.38L519.48 128.07L519.69 128.75L519.9 129.44L520.08 130.14L520.26 130.84L520.42 131.54L520.57 132.25L520.7 132.96L520.82 133.67L520.93 134.39L521.02 135.11L521.1 135.84L521.16 136.57L521.21 137.3L521.25 138.03L521.27 138.77L521.28 139.5L521.27 140L521.25 140.51L521.21 141.02L521.17 141.54L521.11 142.07L521.03 142.6L520.94 143.15L520.84 143.7L520.73 144.26L520.6 144.83L520.46 145.41L520.3 145.99L520.13 146.59L519.95 147.19L519.76 147.79L519.55 148.41L519.32 149.04L519.09 149.67L518.84 150.31L518.57 150.96L518.3 151.61L518 152.28L517.7 152.95L517.38 153.63L517.05 154.32L516.71 155.01L516.35 155.72L515.98 156.43L515.59 157.15L515.19 157.88L514.78 158.62L514.36 159.36L513.92 160.11L513.46 160.87L513 161.64L512.52 162.42L512.02 163.2L511.52 163.99L511 164.79L510.46 165.6L510.1 165.96L471.99 204.07L471.85 204.21L471.71 204.34L471.56 204.48L471.41 204.6L471.26 204.73L471.11 204.85L470.95 204.97L470.8 205.09L470.64 205.2L470.47 205.31L470.31 205.42L470.15 205.52L469.98 205.62L469.81 205.72L469.64 205.81L469.47 205.9L469.29 205.99L469.12 206.07L468.94 206.15L468.76 206.23L468.58 206.3L468.4 206.37L468.22 206.44L468.03 206.5L467.85 206.56L467.66 206.61L467.47 206.66L467.28 206.71L467.09 206.75L466.9 206.79L466.71 206.83L466.52 206.86L466.32 206.89L466.13 206.92L465.93 206.94L465.74 206.96L465.54 206.97L465.35 206.98L465.15 206.99L464.95 206.99L464.75 206.99L464.56 206.98L464.36 206.97L464.16 206.96L463.97 206.94L463.77 206.92L463.58 206.89L463.38 206.86L463.19 206.83L463 206.79L462.81 206.75L462.62 206.71L462.43 206.66L462.24 206.61L462.06 206.56L461.87 206.5L461.69 206.44L461.5 206.37L461.32 206.3L461.14 206.23L460.96 206.15L460.78 206.07L460.61 205.99L460.43 205.9L460.26 205.81L460.09 205.72L459.92 205.62L459.76 205.52L459.59 205.42L459.43 205.31L459.27 205.2L459.11 205.09L458.95 204.97L458.79 204.85L458.64 204.73L458.49 204.6L458.34 204.48L458.19 204.34L458.05 204.21L457.91 204.07L419.44 165.6L418.92 165.07L418.42 164.54L417.92 163.99L417.44 163.44L416.97 162.88L416.52 162.31L416.07 161.74L415.64 161.15L415.22 160.56L414.81 159.97L414.41 159.36L414.03 158.75L413.66 158.13L413.3 157.51L412.95 156.88L412.62 156.24L412.3 155.6L411.99 154.95L411.7 154.3L411.42 153.64L411.15 152.97L410.9 152.3L410.65 151.62L410.43 150.94L410.21 150.26L410.01 149.57L409.82 148.87L409.65 148.17L409.48 147.47L409.34 146.76L409.2 146.05L409.08 145.33L408.98 144.62L408.88 143.89L408.81 143.17L408.74 142.44L408.69 141.71L408.66 140.98L408.63 140.24L408.63 139.5L408.63 138.77L408.66 138.03L408.69 137.3L408.74 136.57L408.81 135.84L408.88 135.11L408.98 134.39L409.08 133.67L409.2 132.96L409.34 132.25L409.48 131.54L409.65 130.84L409.82 130.14L410.01 129.44L410.21 128.75L410.43 128.07L410.65 127.39L410.9 126.71L411.15 126.04L411.42 125.37L411.7 124.71L411.99 124.06L412.3 123.41L412.62 122.77L412.95 122.13L413.3 121.5L413.66 120.87L414.03 120.25L414.41 119.64L414.81 119.04L415.22 118.44L415.64 117.85L416.07 117.27L416.52 116.69L416.97 116.13L417.44 115.57L417.92 115.01L418.42 114.47L418.92 113.93L419.44 113.41L419.97 112.89L420.5 112.38L421.05 111.89L421.6 111.41L422.16 110.94L422.73 110.48L423.3 110.04L423.88 109.6L424.47 109.18L425.07 108.78L425.68 108.38L426.29 108L426.9 107.63L427.53 107.27L428.16 106.92L428.8 106.59L429.44 106.27L430.09 105.96L430.74 105.67L431.4 105.39L432.07 105.12L432.74 104.86L433.42 104.62L434.1 104.39L434.78 104.18L435.47 103.98L436.17 103.79L436.87 103.61L437.57 103.45L438.28 103.3L438.99 103.17L439.71 103.05L440.42 102.94L441.15 102.85L441.87 102.77L442.6 102.71L443.33 102.66L444.06 102.62L444.8 102.6L445.54 102.59L446.06 102.6L446.58 102.61L447.1 102.63L447.62 102.65L448.13 102.68L448.65 102.72L449.16 102.77L449.68 102.82L450.19 102.88L450.7 102.95L451.21 103.03L451.71 103.11L452.22 103.19L452.72 103.29L453.22 103.39L453.72 103.5L454.21 103.62L454.71 103.74L455.2 103.87L455.69 104L456.18 104.15L456.67 104.29L457.15 104.45L457.63 104.61L458.11 104.78L458.58 104.96L459.06 105.14L459.53 105.33L460 105.52L460.46 105.73L460.92 105.94L461.38 106.15L461.84 106.37L462.29 106.6L462.74 106.83L463.19 107.07L463.64 107.32L464.08 107.57L464.52 107.83L464.95 108.1L465.39 107.83L465.82 107.57L466.26 107.32L466.71 107.07L467.16 106.83L467.61 106.6L468.06 106.37L468.52 106.15L468.98 105.94L469.44 105.73L469.91 105.52L470.37 105.33L470.85 105.14L471.32 104.96L471.79 104.78L472.27 104.61L472.75 104.45L473.24 104.29L473.72 104.15L474.21 104L474.7 103.87L475.19 103.74L475.69 103.62L476.19 103.5L476.68 103.39L477.18 103.29L477.69 103.19L478.19 103.11L478.7 103.03L479.21 102.95L479.72 102.88L480.23 102.82L480.74 102.77L481.25 102.72L481.77 102.68L482.29 102.65L482.8 102.63L483.32 102.61L483.84 102.6L484.37 102.59L485.11 102.6L485.84 102.62ZM483.69 122.52L483.35 122.54L483.01 122.56L482.68 122.59L482.35 122.63L482.01 122.67L481.68 122.72L481.35 122.77L481.03 122.84L480.7 122.9L480.38 122.98L480.05 123.06L479.73 123.14L479.42 123.24L479.1 123.34L478.79 123.44L478.48 123.55L478.17 123.67L477.86 123.79L477.56 123.92L477.26 124.06L476.96 124.2L476.66 124.35L476.37 124.5L476.08 124.66L475.79 124.83L475.5 125L475.22 125.17L474.95 125.35L474.67 125.54L474.4 125.74L474.13 125.94L473.87 126.14L473.6 126.35L473.35 126.57L473.09 126.79L472.84 127.02L472.59 127.25L472.35 127.49L471.99 127.85L471.85 127.99L471.71 128.12L471.56 128.25L471.41 128.38L471.26 128.51L471.11 128.63L470.95 128.75L470.8 128.87L470.64 128.98L470.47 129.09L470.31 129.2L470.15 129.3L469.98 129.4L469.81 129.5L469.64 129.59L469.47 129.68L469.29 129.77L469.12 129.85L468.94 129.93L468.76 130.01L468.58 130.08L468.4 130.15L468.22 130.21L468.03 130.28L467.85 130.33L467.66 130.39L467.47 130.44L467.28 130.49L467.09 130.53L466.9 130.57L466.71 130.61L466.52 130.64L466.32 130.67L466.13 130.69L465.93 130.72L465.74 130.73L465.54 130.75L465.35 130.76L465.15 130.76L464.95 130.76L464.94 130.76L464.73 130.76L464.54 130.76L464.34 130.75L464.14 130.73L463.95 130.71L463.75 130.69L463.56 130.67L463.36 130.64L463.17 130.6L462.98 130.57L462.79 130.53L462.6 130.48L462.41 130.43L462.22 130.38L462.03 130.33L461.85 130.27L461.66 130.21L461.48 130.14L461.3 130.07L461.12 130L460.94 129.92L460.76 129.84L460.58 129.76L460.41 129.67L460.24 129.58L460.07 129.48L459.9 129.39L459.73 129.29L459.56 129.18L459.4 129.08L459.24 128.96L459.08 128.85L458.92 128.73L458.77 128.61L458.61 128.49L458.46 128.36L458.32 128.23L458.17 128.1L458.03 127.96L457.88 127.82L457.53 127.46L457.29 127.23L457.04 127L456.79 126.77L456.54 126.55L456.28 126.34L456.02 126.13L455.76 125.92L455.49 125.72L455.22 125.53L454.95 125.35L454.67 125.16L454.39 124.99L454.11 124.82L453.82 124.65L453.53 124.5L453.24 124.34L452.94 124.2L452.64 124.06L452.34 123.92L452.04 123.79L451.73 123.67L451.42 123.55L451.11 123.44L450.8 123.34L450.49 123.24L450.17 123.14L449.85 123.06L449.53 122.98L449.2 122.9L448.88 122.84L448.55 122.77L448.22 122.72L447.89 122.67L447.56 122.63L447.22 122.59L446.89 122.56L446.55 122.54L446.22 122.52L445.88 122.51L445.54 122.51L445.2 122.51L444.86 122.52L444.52 122.54L444.18 122.56L443.85 122.59L443.52 122.63L443.18 122.67L442.85 122.72L442.52 122.77L442.2 122.84L441.87 122.9L441.55 122.98L441.22 123.06L440.9 123.14L440.59 123.24L440.27 123.34L439.96 123.44L439.65 123.55L439.34 123.67L439.03 123.79L438.73 123.92L438.42 124.06L438.13 124.2L437.83 124.35L437.54 124.5L437.25 124.66L436.96 124.83L436.67 125L436.39 125.17L436.11 125.35L435.84 125.54L435.57 125.74L435.3 125.94L435.03 126.14L434.77 126.35L434.52 126.57L434.26 126.79L434.01 127.02L433.76 127.25L433.52 127.49L433.28 127.73L433.05 127.98L432.82 128.23L432.6 128.48L432.39 128.74L432.18 129L431.97 129.26L431.77 129.53L431.58 129.8L431.39 130.08L431.21 130.36L431.03 130.64L430.86 130.92L430.7 131.21L430.54 131.5L430.38 131.79L430.24 132.09L430.09 132.39L429.96 132.69L429.83 132.99L429.71 133.3L429.59 133.61L429.48 133.92L429.37 134.24L429.27 134.55L429.18 134.87L429.09 135.19L429.01 135.51L428.94 135.83L428.87 136.16L428.81 136.49L428.75 136.82L428.71 137.15L428.66 137.48L428.63 137.81L428.6 138.15L428.57 138.48L428.56 138.82L428.55 139.16L428.54 139.5L428.55 139.84L428.56 140.18L428.57 140.52L428.6 140.85L428.63 141.19L428.66 141.52L428.71 141.85L428.75 142.18L428.81 142.51L428.87 142.84L428.94 143.17L429.01 143.49L429.09 143.81L429.18 144.13L429.27 144.45L429.37 144.76L429.48 145.08L429.59 145.39L429.71 145.7L429.83 146L429.96 146.31L430.09 146.61L430.24 146.91L430.38 147.2L430.54 147.5L430.7 147.79L430.86 148.08L431.03 148.36L431.21 148.64L431.39 148.92L431.58 149.19L431.77 149.47L431.97 149.73L432.18 150L432.39 150.26L432.6 150.52L432.82 150.77L433.05 151.02L433.28 151.27L433.52 151.51L433.88 151.87L464.95 182.94L496.38 151.52L496.62 151.27L496.85 151.03L497.08 150.78L497.3 150.52L497.52 150.26L497.73 150L497.93 149.74L498.13 149.47L498.33 149.2L498.51 148.92L498.7 148.64L498.87 148.36L499.04 148.08L499.21 147.79L499.37 147.5L499.52 147.21L499.67 146.91L499.81 146.61L499.94 146.31L500.07 146.01L500.2 145.7L500.31 145.39L500.43 145.08L500.53 144.77L500.63 144.45L500.72 144.13L500.81 143.81L500.89 143.49L500.96 143.17L501.03 142.84L501.09 142.51L501.15 142.19L501.2 141.85L501.24 141.52L501.28 141.19L501.31 140.85L501.33 140.52L501.35 140.18L501.36 139.84L501.36 139.5L501.36 139.16L501.35 138.82L501.33 138.48L501.31 138.15L501.28 137.81L501.24 137.48L501.2 137.15L501.15 136.82L501.09 136.49L501.03 136.16L500.96 135.83L500.89 135.51L500.81 135.19L500.72 134.87L500.63 134.55L500.53 134.24L500.43 133.92L500.31 133.61L500.2 133.3L500.07 132.99L499.94 132.69L499.81 132.39L499.67 132.09L499.52 131.79L499.37 131.5L499.21 131.21L499.04 130.92L498.87 130.64L498.7 130.36L498.51 130.08L498.33 129.8L498.13 129.53L497.93 129.26L497.73 129L497.52 128.74L497.3 128.48L497.08 128.23L496.85 127.98L496.62 127.73L496.38 127.49L496.14 127.25L495.89 127.02L495.64 126.79L495.39 126.57L495.13 126.35L494.87 126.14L494.6 125.94L494.34 125.74L494.06 125.54L493.79 125.35L493.51 125.17L493.23 125L492.94 124.83L492.66 124.66L492.37 124.5L492.07 124.35L491.78 124.2L491.48 124.06L491.18 123.92L490.87 123.79L490.57 123.67L490.26 123.55L489.95 123.44L489.63 123.34L489.32 123.24L489 123.14L488.68 123.06L488.36 122.98L488.03 122.9L487.71 122.84L487.38 122.77L487.05 122.72L486.72 122.67L486.39 122.63L486.05 122.59L485.72 122.56L485.38 122.54L485.05 122.52L484.71 122.51L484.37 122.51L484.03 122.51L483.69 122.52Z"
              id="a6qL04Xx7"></path>
        <path d="M755.97 593.08L756.7 593.11L757.43 593.16L758.16 593.23L758.88 593.3L759.6 593.4L760.32 593.5L761.04 593.62L761.75 593.76L762.45 593.9L763.16 594.07L763.86 594.24L764.55 594.43L765.24 594.63L765.93 594.85L766.61 595.07L767.29 595.32L767.96 595.57L768.62 595.84L769.28 596.12L769.94 596.41L770.59 596.72L771.23 597.04L771.87 597.37L772.5 597.72L773.12 598.08L773.74 598.45L774.35 598.83L774.96 599.23L775.55 599.64L776.14 600.06L776.73 600.49L777.3 600.93L777.87 601.39L778.43 601.86L778.98 602.34L779.53 602.84L780.06 603.34L780.59 603.86L781.11 604.38L781.61 604.92L782.11 605.46L782.59 606.02L783.06 606.58L783.51 607.14L783.96 607.72L784.39 608.3L784.81 608.89L785.22 609.49L785.62 610.09L786 610.7L786.37 611.32L786.73 611.95L787.08 612.58L787.41 613.21L787.73 613.86L788.04 614.51L788.33 615.16L788.61 615.82L788.88 616.49L789.13 617.16L789.38 617.83L789.6 618.52L789.82 619.2L790.02 619.89L790.21 620.59L790.38 621.29L790.55 621.99L790.69 622.7L790.83 623.41L790.95 624.12L791.05 624.84L791.15 625.56L791.22 626.29L791.29 627.02L791.34 627.75L791.37 628.48L791.39 629.22L791.4 629.95L791.39 630.69L791.37 631.43L791.34 632.16L791.29 632.89L791.22 633.62L791.15 634.34L791.05 635.07L790.95 635.78L790.83 636.5L790.69 637.21L790.55 637.92L790.38 638.62L790.21 639.32L790.02 640.01L789.82 640.71L789.6 641.39L789.38 642.07L789.13 642.75L788.88 643.42L788.61 644.08L788.33 644.75L788.04 645.4L787.73 646.05L787.41 646.69L787.08 647.33L786.73 647.96L786.37 648.58L786 649.2L785.62 649.81L785.22 650.42L784.81 651.02L784.39 651.61L783.96 652.19L783.51 652.76L783.06 653.33L782.59 653.89L782.11 654.44L781.61 654.99L781.11 655.52L780.59 656.05L780.23 656.41L742.12 694.52L741.97 694.66L741.83 694.8L741.68 694.93L741.54 695.06L741.38 695.18L741.23 695.31L741.08 695.43L740.92 695.54L740.76 695.66L740.6 695.77L740.43 695.87L740.27 695.98L740.1 696.08L739.93 696.17L739.76 696.27L739.59 696.36L739.42 696.44L739.24 696.53L739.06 696.61L738.88 696.68L738.7 696.75L738.52 696.82L738.34 696.89L738.16 696.95L737.97 697.01L737.78 697.06L737.59 697.12L737.41 697.16L737.22 697.21L737.03 697.25L736.83 697.28L736.64 697.32L736.45 697.34L736.25 697.37L736.06 697.39L735.86 697.41L735.67 697.42L735.47 697.43L735.27 697.44L735.07 697.44L734.88 697.44L734.68 697.43L734.48 697.42L734.29 697.41L734.09 697.39L733.9 697.37L733.7 697.34L733.51 697.32L733.32 697.28L733.12 697.25L732.93 697.21L732.74 697.16L732.55 697.12L732.37 697.06L732.18 697.01L731.99 696.95L731.81 696.89L731.63 696.82L731.44 696.75L731.26 696.68L731.09 696.61L730.91 696.53L730.73 696.44L730.56 696.36L730.39 696.27L730.22 696.17L730.05 696.08L729.88 695.98L729.71 695.87L729.55 695.77L729.39 695.66L729.23 695.54L729.07 695.43L728.92 695.31L728.76 695.18L728.61 695.06L728.46 694.93L728.32 694.8L728.18 694.66L728.03 694.52L689.56 656.05L689.05 655.52L688.54 654.99L688.05 654.44L687.57 653.89L687.1 653.33L686.64 652.77L686.19 652.19L685.76 651.61L685.34 651.02L684.93 650.42L684.54 649.82L684.15 649.21L683.78 648.59L683.42 647.96L683.08 647.33L682.75 646.7L682.43 646.05L682.12 645.4L681.82 644.75L681.54 644.09L681.27 643.42L681.02 642.75L680.78 642.08L680.55 641.39L680.33 640.71L680.13 640.02L679.94 639.32L679.77 638.62L679.61 637.92L679.46 637.21L679.33 636.5L679.21 635.79L679.1 635.07L679.01 634.35L678.93 633.62L678.87 632.89L678.82 632.16L678.78 631.43L678.76 630.69L678.75 629.96L678.76 629.22L678.78 628.48L678.82 627.75L678.87 627.02L678.93 626.29L679.01 625.57L679.1 624.84L679.21 624.13L679.33 623.41L679.46 622.7L679.61 621.99L679.77 621.29L679.94 620.59L680.13 619.9L680.33 619.2L680.55 618.52L680.78 617.84L681.02 617.16L681.27 616.49L681.54 615.83L681.82 615.16L682.12 614.51L682.43 613.86L682.75 613.22L683.08 612.58L683.42 611.95L683.78 611.33L684.15 610.71L684.54 610.1L684.93 609.49L685.34 608.89L685.76 608.3L686.19 607.72L686.64 607.15L687.1 606.58L687.57 606.02L688.05 605.47L688.54 604.92L689.05 604.39L689.56 603.86L690.09 603.34L690.63 602.84L691.17 602.34L691.72 601.86L692.28 601.39L692.85 600.94L693.42 600.49L694.01 600.06L694.6 599.64L695.2 599.23L695.8 598.83L696.41 598.45L697.03 598.08L697.65 597.72L698.28 597.37L698.92 597.04L699.56 596.72L700.21 596.41L700.87 596.12L701.53 595.84L702.19 595.57L702.87 595.32L703.54 595.07L704.22 594.85L704.91 594.63L705.6 594.43L706.29 594.24L706.99 594.07L707.7 593.9L708.4 593.76L709.11 593.62L709.83 593.5L710.55 593.4L711.27 593.3L711.99 593.23L712.72 593.16L713.45 593.11L714.19 593.08L714.92 593.05L715.66 593.05L716.18 593.05L716.7 593.06L717.22 593.08L717.74 593.11L718.26 593.14L718.77 593.18L719.29 593.22L719.8 593.28L720.31 593.34L720.82 593.4L721.33 593.48L721.84 593.56L722.34 593.65L722.84 593.74L723.34 593.84L723.84 593.95L724.34 594.07L724.83 594.19L725.33 594.32L725.82 594.46L726.3 594.6L726.79 594.75L727.27 594.9L727.75 595.07L728.23 595.24L728.71 595.41L729.18 595.59L729.65 595.78L730.12 595.98L730.59 596.18L731.05 596.39L731.51 596.6L731.96 596.82L732.42 597.05L732.87 597.29L733.32 597.53L733.76 597.77L734.2 598.03L734.64 598.29L735.07 598.55L735.51 598.29L735.95 598.03L736.39 597.77L736.83 597.53L737.28 597.29L737.73 597.05L738.19 596.82L738.64 596.6L739.1 596.39L739.57 596.18L740.03 595.98L740.5 595.78L740.97 595.59L741.44 595.41L741.92 595.24L742.4 595.07L742.88 594.9L743.36 594.75L743.85 594.6L744.34 594.46L744.83 594.32L745.32 594.19L745.81 594.07L746.31 593.95L746.81 593.84L747.31 593.74L747.81 593.65L748.32 593.56L748.82 593.48L749.33 593.4L749.84 593.34L750.35 593.28L750.86 593.22L751.38 593.18L751.89 593.14L752.41 593.11L752.93 593.08L753.45 593.06L753.97 593.05L754.49 593.05L755.23 593.05L755.97 593.08ZM714.64 613L714.31 613.02L713.97 613.05L713.64 613.09L713.31 613.13L712.98 613.18L712.65 613.23L712.32 613.29L711.99 613.36L711.67 613.44L711.35 613.52L711.03 613.6L710.71 613.7L710.39 613.79L710.08 613.9L709.77 614.01L709.46 614.13L709.15 614.25L708.85 614.38L708.55 614.52L708.25 614.66L707.95 614.81L707.66 614.96L707.37 615.12L707.08 615.28L706.8 615.45L706.52 615.63L706.24 615.81L705.96 616L705.69 616.19L705.42 616.39L705.16 616.6L704.9 616.81L704.64 617.02L704.39 617.25L704.13 617.47L703.89 617.71L703.65 617.94L703.41 618.19L703.17 618.43L702.95 618.68L702.73 618.94L702.51 619.2L702.3 619.46L702.09 619.72L701.9 619.99L701.7 620.26L701.51 620.54L701.33 620.82L701.16 621.1L700.98 621.38L700.82 621.67L700.66 621.96L700.51 622.25L700.36 622.55L700.22 622.85L700.08 623.15L699.95 623.45L699.83 623.76L699.71 624.07L699.6 624.38L699.5 624.69L699.4 625.01L699.3 625.33L699.22 625.65L699.14 625.97L699.06 626.29L699 626.62L698.93 626.95L698.88 627.27L698.83 627.61L698.79 627.94L698.75 628.27L698.72 628.61L698.7 628.94L698.68 629.28L698.67 629.62L698.67 629.96L698.67 630.3L698.68 630.64L698.7 630.97L698.72 631.31L698.75 631.65L698.79 631.98L698.83 632.31L698.88 632.64L698.93 632.97L699 633.3L699.06 633.62L699.14 633.95L699.22 634.27L699.3 634.59L699.4 634.91L699.5 635.22L699.6 635.54L699.71 635.85L699.83 636.16L699.95 636.46L700.08 636.77L700.22 637.07L700.36 637.37L700.51 637.66L700.66 637.96L700.82 638.25L700.98 638.53L701.16 638.82L701.33 639.1L701.51 639.38L701.7 639.65L701.9 639.92L702.09 640.19L702.3 640.46L702.51 640.72L702.73 640.98L702.95 641.23L703.17 641.48L703.41 641.73L703.65 641.97L704.01 642.33L735.07 673.4L766.51 641.97L766.74 641.73L766.98 641.48L767.2 641.23L767.43 640.98L767.64 640.72L767.85 640.46L768.06 640.19L768.26 639.93L768.45 639.65L768.64 639.38L768.82 639.1L769 638.82L769.17 638.53L769.33 638.25L769.49 637.96L769.64 637.66L769.79 637.37L769.93 637.07L770.07 636.77L770.2 636.46L770.32 636.16L770.44 635.85L770.55 635.54L770.66 635.22L770.75 634.91L770.85 634.59L770.93 634.27L771.01 633.95L771.09 633.62L771.16 633.3L771.22 632.97L771.27 632.64L771.32 632.31L771.36 631.98L771.4 631.65L771.43 631.31L771.45 630.97L771.47 630.64L771.48 630.3L771.48 629.96L771.48 629.62L771.47 629.28L771.45 628.94L771.43 628.61L771.4 628.27L771.36 627.94L771.32 627.61L771.27 627.27L771.22 626.95L771.16 626.62L771.09 626.29L771.01 625.97L770.93 625.65L770.85 625.33L770.75 625.01L770.66 624.69L770.55 624.38L770.44 624.07L770.32 623.76L770.2 623.45L770.07 623.15L769.93 622.85L769.79 622.55L769.64 622.25L769.49 621.96L769.33 621.67L769.17 621.38L769 621.1L768.82 620.82L768.64 620.54L768.45 620.26L768.26 619.99L768.06 619.72L767.85 619.46L767.64 619.2L767.43 618.94L767.2 618.68L766.98 618.43L766.74 618.19L766.51 617.94L766.26 617.71L766.02 617.47L765.77 617.25L765.51 617.02L765.25 616.81L764.99 616.6L764.73 616.39L764.46 616.19L764.19 616L763.91 615.81L763.63 615.63L763.35 615.45L763.07 615.28L762.78 615.12L762.49 614.96L762.2 614.81L761.9 614.66L761.6 614.52L761.3 614.38L761 614.25L760.69 614.13L760.38 614.01L760.07 613.9L759.76 613.79L759.44 613.7L759.12 613.6L758.8 613.52L758.48 613.44L758.16 613.36L757.83 613.29L757.5 613.23L757.18 613.18L756.84 613.13L756.51 613.09L756.18 613.05L755.84 613.02L755.51 613L755.17 612.98L754.83 612.97L754.49 612.97L754.15 612.97L753.81 612.98L753.47 613L753.14 613.02L752.8 613.05L752.47 613.09L752.14 613.13L751.81 613.18L751.48 613.23L751.15 613.29L750.82 613.36L750.5 613.44L750.18 613.52L749.86 613.6L749.54 613.7L749.23 613.79L748.91 613.9L748.6 614.01L748.29 614.13L747.98 614.25L747.68 614.38L747.38 614.52L747.08 614.66L746.78 614.81L746.49 614.96L746.2 615.12L745.91 615.28L745.63 615.45L745.35 615.63L745.07 615.81L744.79 616L744.52 616.19L744.25 616.39L743.99 616.6L743.73 616.81L743.47 617.02L743.22 617.25L742.97 617.47L742.72 617.71L742.48 617.94L742.12 618.3L741.97 618.44L741.83 618.58L741.68 618.71L741.54 618.84L741.38 618.97L741.23 619.09L741.08 619.21L740.92 619.33L740.76 619.44L740.6 619.55L740.44 619.66L740.27 619.76L740.1 619.86L739.93 619.96L739.76 620.05L739.59 620.14L739.42 620.23L739.24 620.31L739.06 620.39L738.89 620.46L738.7 620.54L738.52 620.61L738.34 620.67L738.16 620.73L737.97 620.79L737.78 620.85L737.6 620.9L737.41 620.95L737.22 620.99L737.03 621.03L736.83 621.07L736.64 621.1L736.45 621.13L736.25 621.15L736.06 621.17L735.86 621.19L735.67 621.21L735.47 621.21L735.27 621.22L735.07 621.22L735.06 621.22L734.86 621.22L734.66 621.21L734.46 621.2L734.27 621.19L734.07 621.17L733.88 621.15L733.68 621.12L733.49 621.1L733.29 621.06L733.1 621.03L732.91 620.98L732.72 620.94L732.53 620.89L732.34 620.84L732.16 620.79L731.97 620.73L731.79 620.66L731.6 620.6L731.42 620.53L731.24 620.45L731.06 620.38L730.88 620.3L730.71 620.21L730.53 620.13L730.36 620.04L730.19 619.94L730.02 619.85L729.85 619.74L729.69 619.64L729.53 619.53L729.36 619.42L729.2 619.31L729.05 619.19L728.89 619.07L728.74 618.95L728.59 618.82L728.44 618.69L728.29 618.56L728.15 618.42L728.01 618.28L727.65 617.92L727.41 617.69L727.16 617.45L726.92 617.23L726.66 617.01L726.41 616.79L726.15 616.58L725.88 616.38L725.62 616.18L725.35 615.99L725.07 615.8L724.79 615.62L724.51 615.45L724.23 615.28L723.94 615.11L723.65 614.95L723.36 614.8L723.07 614.65L722.77 614.51L722.47 614.38L722.16 614.25L721.86 614.13L721.55 614.01L721.24 613.9L720.92 613.79L720.61 613.69L720.29 613.6L719.97 613.52L719.65 613.44L719.33 613.36L719 613.29L718.67 613.23L718.34 613.18L718.01 613.13L717.68 613.09L717.35 613.05L717.01 613.02L716.68 613L716.34 612.98L716 612.97L715.66 612.97L715.32 612.97L714.98 612.98L714.64 613Z"
              id="b1CAZOxiHD"></path>
        <path d="M783.11 102.59C793.47 102.59 801.86 110.99 801.86 121.34C801.86 237.56 801.86 567.46 801.86 683.68C801.86 694.04 793.47 702.43 783.11 702.43C707.2 702.43 498.21 702.43 422.3 702.43C411.94 702.43 403.55 694.04 403.55 683.68C403.55 567.46 403.55 237.56 403.55 121.34C403.55 110.99 411.94 102.59 422.3 102.59C498.21 102.59 707.2 102.59 783.11 102.59Z"
              id="aVM9z4vJR"></path>
    </defs>
    <g>
        <g>
            <g>
                <use xlink:href="#b7KeshmGx" opacity="1" fill="#000000" fill-opacity="1"></use>
                <g>
                    <use xlink:href="#b7KeshmGx" opacity="1" fill-opacity="0" stroke="#000000" stroke-width="1"
                         stroke-opacity="0"></use>
                </g>
            </g>
<!--            <g>-->
<!--                <use xlink:href="#eX8EraAUu" opacity="1" fill="#000000" fill-opacity="1"></use>-->
<!--                <g>-->
<!--                    <use xlink:href="#eX8EraAUu" opacity="1" fill-opacity="0" stroke="#000000" stroke-width="1"-->
<!--                         stroke-opacity="0"></use>-->
<!--                </g>-->
<!--            </g>-->
<!--            <g>-->
<!--                <use xlink:href="#a6qL04Xx7" opacity="1" fill="#000000" fill-opacity="1"></use>-->
<!--                <g>-->
<!--                    <use xlink:href="#a6qL04Xx7" opacity="1" fill-opacity="0" stroke="#000000" stroke-width="1"-->
<!--                         stroke-opacity="0"></use>-->
<!--                </g>-->
<!--            </g>-->
<!--            <g>-->
<!--                <use xlink:href="#b1CAZOxiHD" opacity="1" fill="#000000" fill-opacity="1"></use>-->
<!--                <g>-->
<!--                    <use xlink:href="#b1CAZOxiHD" opacity="1" fill-opacity="0" stroke="#000000" stroke-width="1"-->
<!--                         stroke-opacity="0"></use>-->
<!--                </g>-->
<!--            </g>-->
            <g>
                <use xlink:href="#aVM9z4vJR" opacity="1" fill="#000000" fill-opacity="0"></use>
            </g>
        </g>
    </g>
</svg>
