<?xml version="1.0" encoding="iso-8859-1"?>
<!-- Generator: Adobe Illustrator 18.0.0, SVG Export Plug-In . SVG Version: 6.00 Build 0)  -->
<!DOCTYPE svg PUBLIC "-//W3C//DTD SVG 1.1//EN" "http://www.w3.org/Graphics/SVG/1.1/DTD/svg11.dtd">
<svg version="1.1" id="Capa_1" xmlns="http://www.w3.org/2000/svg" xmlns:xlink="http://www.w3.org/1999/xlink" x="0px" y="0px"
	 viewBox="0 0 321.334 321.334" style="enable-background:new 255 255 321.334 321.334;" xml:space="preserve">
<g>
	<path d="M315.081,152.087l-29.333-20.373l17.395-31.195c1.895-3.4,2.351-7.334,1.286-11.078s-3.523-6.85-6.922-8.742
		l-41.693-23.244V38.76c0-8.038-6.539-14.578-14.577-14.578h-45.089L156.78,2.23c-3.401-1.898-7.335-2.362-11.084-1.295
		c-3.744,1.064-6.853,3.525-8.752,6.931l-8.235,14.776l-13.882-9.65c-3.193-2.227-7.063-3.072-10.896-2.385
		c-3.839,0.688-7.177,2.832-9.397,6.034l-5.236,7.541h-9.188c-8.038,0-14.577,6.54-14.577,14.578v19.635L2.615,148.968
		c-2.226,3.198-3.071,7.07-2.381,10.904c0.69,3.833,2.834,7.166,6.032,9.385l29.332,20.376l-17.39,31.188
		c-1.899,3.397-2.36,7.331-1.3,11.074c1.063,3.75,3.525,6.861,6.933,8.761l41.69,23.247v18.686c0,8.038,6.539,14.577,14.577,14.577
		h45.087l39.372,21.948c2.242,1.252,4.677,1.847,7.079,1.847c5.114,0,10.087-2.694,12.756-7.471l8.233-14.763l13.883,9.641
		c2.526,1.753,5.421,2.595,8.289,2.595c4.619,0,9.17-2.182,12.006-6.249l5.244-7.548h9.179c8.038,0,14.577-6.539,14.577-14.577
		v-19.631l62.92-90.583C323.318,165.779,321.681,156.679,315.081,152.087z M293.613,87.688c1.532,0.854,2.641,2.253,3.121,3.941
		c0.479,1.688,0.273,3.463-0.579,4.995l-17.01,30.504l-23.332-16.205V66.615L293.613,87.688z M143.932,11.761
		c0.858-1.539,2.262-2.65,3.952-3.131c1.688-0.479,3.462-0.273,4.997,0.585l26.841,14.967h-42.718L143.932,11.761z M101.105,21.202
		c1.002-1.444,2.508-2.411,4.239-2.722c1.728-0.31,3.471,0.07,4.914,1.077l6.659,4.624H99.036L101.105,21.202z M8.108,158.453
		c-0.311-1.728,0.07-3.474,1.076-4.919l56.348-81.116v128.267l-54.703-38C9.385,161.684,8.419,160.181,8.108,158.453z
		 M27.737,233.669c-1.54-0.859-2.652-2.264-3.132-3.956c-0.479-1.687-0.271-3.458,0.587-4.992L42.2,194.219l23.331,16.207v44.317
		L27.737,233.669z M177.417,309.591c-1.77,3.167-5.781,4.308-8.951,2.537l-26.84-14.962h42.718L177.417,309.591z M220.247,300.144
		c-2.076,2.979-6.189,3.72-9.166,1.653l-6.667-4.631h17.901L220.247,300.144z M247.814,282.589c0,3.627-2.95,6.577-6.577,6.577
		H80.109c-3.627,0-6.577-2.95-6.577-6.577V38.76c0-3.627,2.95-6.578,6.577-6.578h161.128c3.627,0,6.577,2.951,6.577,6.578V282.589z
		 M312.164,167.81l-56.351,81.125V120.664l54.701,37.992C313.492,160.728,314.233,164.834,312.164,167.81z"/>
	<path d="M196.508,128.379c-5.122-5.123-11.933-7.943-19.178-7.943c-6.112,0-11.916,2.008-16.657,5.712
		c-4.742-3.704-10.546-5.712-16.658-5.712c-7.245,0-14.056,2.82-19.178,7.943c-10.575,10.574-10.575,27.78,0,38.354l33.007,33.008
		c0.75,0.75,1.768,1.172,2.828,1.172s2.078-0.422,2.828-1.172l33.008-33.008C207.083,156.159,207.083,138.953,196.508,128.379z
		 M190.852,161.077l-30.18,30.179l-30.179-30.179c-7.455-7.456-7.455-19.586,0-27.042c3.611-3.611,8.413-5.6,13.521-5.6
		c5.107,0,9.909,1.988,13.517,5.596l0.308,0.309c0.75,0.752,1.768,1.175,2.83,1.176c0.001,0,0.002,0,0.003,0
		c1.061,0,2.078-0.422,2.828-1.172l0.309-0.309c3.612-3.611,8.414-5.6,13.521-5.6c5.108,0,9.91,1.988,13.521,5.6
		C198.307,141.491,198.307,153.621,190.852,161.077z"/>
	<path d="M124.703,66.516c2.801-2.8,4.343-6.522,4.343-10.482s-1.542-7.683-4.343-10.482c-2.8-2.801-6.522-4.343-10.482-4.343
		c-2.799,0-5.479,0.771-7.799,2.211c-2.319-1.44-4.999-2.211-7.798-2.211c-3.96,0-7.683,1.542-10.482,4.343
		c-2.801,2.8-4.343,6.522-4.343,10.482s1.542,7.683,4.343,10.481l15.452,15.453c0.75,0.75,1.768,1.172,2.828,1.172
		s2.078-0.422,2.828-1.172l15.309-15.309L124.703,66.516z M119.047,60.859l-12.625,12.624L93.943,61.003l-0.145-0.146
		c-1.289-1.288-1.999-3.002-1.999-4.824c0-1.823,0.71-3.537,1.999-4.826s3.003-1.999,4.826-1.999s3.537,0.71,4.816,1.99l0.144,0.145
		c0.749,0.754,1.769,1.179,2.831,1.181c0.002,0,0.005,0,0.007,0c1.061,0,2.078-0.421,2.828-1.172l0.145-0.145
		c1.289-1.289,3.003-1.999,4.826-1.999s3.537,0.71,4.826,1.999s1.999,3.003,1.999,4.826
		C121.046,57.856,120.336,59.57,119.047,60.859z"/>
	<path d="M222.721,238.208c-2.799,0-5.479,0.771-7.799,2.211c-2.319-1.44-4.999-2.211-7.798-2.211c-3.96,0-7.683,1.542-10.482,4.343
		c-2.801,2.8-4.343,6.522-4.343,10.482c0,3.96,1.542,7.683,4.343,10.481l15.452,15.453c0.75,0.75,1.768,1.172,2.828,1.172
		s2.078-0.422,2.828-1.172l15.309-15.309l0.145-0.144c2.801-2.8,4.343-6.522,4.343-10.482c0-3.96-1.542-7.683-4.343-10.482
		C230.403,239.75,226.681,238.208,222.721,238.208z M227.547,257.859l-12.625,12.624l-12.479-12.479l-0.145-0.146
		c-1.289-1.288-1.999-3.002-1.999-4.824c0-1.823,0.71-3.537,1.999-4.826s3.003-1.999,4.826-1.999s3.537,0.71,4.816,1.99l0.144,0.145
		c0.749,0.754,1.769,1.179,2.831,1.181c0.002,0,0.005,0,0.007,0c1.061,0,2.078-0.421,2.828-1.172l0.145-0.145
		c1.289-1.289,3.003-1.999,4.826-1.999s3.537,0.71,4.826,1.999s1.999,3.003,1.999,4.826
		C229.546,254.856,228.836,256.57,227.547,257.859z"/>
</g>
<g>
</g>
<g>
</g>
<g>
</g>
<g>
</g>
<g>
</g>
<g>
</g>
<g>
</g>
<g>
</g>
<g>
</g>
<g>
</g>
<g>
</g>
<g>
</g>
<g>
</g>
<g>
</g>
<g>
</g>
</svg>
